<?xml version="1.0" encoding="UTF-8" standalone="no"?>
<svg
   version="1.1"
   id="Layer_1"
   x="0px"
   y="0px"
   width="100%"
   viewBox="0 0 500 500"
   enable-background="new 0 0 500 500"
   xml:space="preserve"
   sodipodi:docname="Дизайн без названия-2.svg"
   inkscape:version="1.3 (0e150ed, 2023-07-21)"
   xmlns:inkscape="http://www.inkscape.org/namespaces/inkscape"
   xmlns:sodipodi="http://sodipodi.sourceforge.net/DTD/sodipodi-0.dtd"
   xmlns="http://www.w3.org/2000/svg"
   xmlns:svg="http://www.w3.org/2000/svg"><defs
   id="defs2" /><sodipodi:namedview
   id="namedview2"
   pagecolor="#505050"
   bordercolor="#eeeeee"
   borderopacity="1"
   inkscape:showpageshadow="0"
   inkscape:pageopacity="0"
   inkscape:pagecheckerboard="0"
   inkscape:deskcolor="#505050"
   inkscape:zoom="2.4779239"
   inkscape:cx="283.50346"
   inkscape:cy="97.662401"
   inkscape:window-width="1512"
   inkscape:window-height="449"
   inkscape:window-x="0"
   inkscape:window-y="38"
   inkscape:window-maximized="0"
   inkscape:current-layer="Layer_1" />&#10;&#10;<path
   fill="#3BB7FF"
   opacity="1.000000"
   stroke="none"
   d=" M176.915573,70.911476   C176.803391,64.426697 180.449539,60.931618 185.495316,58.844666   C190.455399,56.793156 194.631622,59.011097 198.130035,62.485046   C210.192596,74.463188 222.184464,86.512497 234.210938,98.527031   C235.470062,99.784927 236.779922,100.992035 239.043518,103.157700   C239.220322,100.218857 239.407639,98.529358 239.410233,96.839584   C239.433212,81.840012 239.394592,66.840271 239.451996,51.840885   C239.461502,49.356155 239.573410,46.811054 240.115204,44.401138   C241.454224,38.445023 246.011703,35.238720 251.804886,35.853920   C257.665985,36.476326 261.846863,40.914341 261.878662,46.893017   C261.953827,61.021919 261.902802,75.151489 261.902802,90.446472   C267.371521,85.363876 272.147095,80.892914 276.959381,76.461838   C282.091431,71.736343 287.899536,71.422699 292.097382,75.594177   C296.644226,80.112488 296.190613,85.957314 290.616730,91.367599   C284.641724,97.167229 278.499634,102.794746 272.424866,108.491417   C272.061401,108.832237 271.669128,109.151062 271.255615,109.428474   C263.708588,114.491508 260.376587,121.182144 261.549988,130.553833   C262.381012,137.190857 261.710938,144.015839 261.710938,151.752930   C264.318542,149.284821 266.449677,147.334488 268.506317,145.308472   C274.560822,139.344070 280.484863,133.243042 286.655060,127.401627   C291.362061,122.945442 297.471191,122.930847 301.427002,126.984711   C305.293640,130.947174 305.212280,137.296341 300.757233,141.780167   C289.012726,153.600525 277.164642,165.320755 265.190552,176.908005   C262.554260,179.459106 261.587524,182.074234 261.635254,185.687363   C261.819916,199.671417 261.710327,213.659363 261.710327,228.565170   C263.712494,227.691132 265.032837,227.245285 266.225983,226.573502   C277.113739,220.443237 287.886871,214.100769 298.899628,208.205383   C302.985748,206.017990 304.947388,202.992218 305.992462,198.683441   C309.480896,184.300980 313.187164,169.971283 316.825623,155.625351   C317.234131,154.014755 317.623596,152.383057 318.225891,150.840820   C320.457123,145.127808 325.275482,142.346344 330.332092,143.753098   C335.952850,145.316788 338.991730,150.497528 337.509552,156.678513   C335.338043,165.734177 332.891785,174.723953 330.565125,183.742447   C330.037109,185.789139 329.519409,187.838486 328.608337,191.410156   C334.163483,188.118790 338.251862,184.871826 342.902283,183.100266   C355.393280,178.341843 360.746552,169.145798 362.169525,156.362106   C362.992004,148.973022 365.215698,141.721909 367.044342,134.468094   C368.724243,127.804321 373.669006,124.699814 379.610107,126.224838   C384.968201,127.600197 387.931641,133.027237 386.582672,139.321213   C385.159912,145.959488 383.574127,152.562836 381.882629,159.954834   C383.559845,159.126892 384.669800,158.666260 385.693634,158.060150   C396.445007,151.695297 407.135925,145.226669 417.940857,138.954361   C424.861633,134.936829 430.056458,135.794601 433.702179,141.180969   C437.651489,147.015854 436.442719,153.017166 429.953857,156.919693   C420.676422,162.499313 411.155090,167.672882 401.751068,173.042908   C399.067047,174.575592 396.428650,176.188171 392.734100,178.377625   C398.084351,180.112610 402.269775,181.470993 406.456055,182.826889   C408.516296,183.494186 410.588593,184.126068 412.637177,184.827286   C419.113281,187.043976 422.222656,192.179123 420.481781,197.735352   C418.732513,203.318420 413.376495,205.907227 406.717560,204.023849   C399.183746,201.892990 391.396881,200.205322 384.326202,196.991425   C372.994019,191.840515 363.094421,192.748978 353.354095,200.495941   C349.382446,203.654785 344.554260,205.736710 339.091827,208.901901   C344.725616,210.493500 349.300140,211.770447 353.865479,213.079346   C360.107819,214.869095 366.388336,216.542267 372.569214,218.525009   C379.226440,220.660538 382.281311,225.712830 380.653168,231.314346   C379.021729,236.927200 373.654449,239.692337 367.040497,237.885590   C351.611908,233.670929 336.202972,229.375000 320.863098,224.850952   C316.731293,223.632385 313.294250,223.728760 309.520508,226.046906   C298.469360,232.835419 287.226593,239.311951 275.372253,246.316422   C276.979645,247.479736 278.027985,248.388565 279.207642,249.070160   C304.307281,263.572693 329.384247,278.115723 354.600281,292.413422   C356.753601,293.634399 360.064789,294.014160 362.477997,293.390778   C387.458557,286.937927 412.354431,280.158264 437.298004,273.560638   C445.890320,271.287933 451.881470,274.373199 453.848053,281.784760   C455.740631,288.917450 452.473358,294.567932 444.598175,296.860870   C434.700439,299.742737 424.691315,302.241333 414.735535,304.924835   C406.282196,307.203308 397.836304,309.509460 388.388977,312.074402   C404.807709,321.560852 420.228638,330.452789 435.630524,339.377533   C442.879456,343.578003 444.948944,349.538971 441.510895,356.084564   C437.795502,363.158081 431.325012,365.019714 423.748779,360.745758   C409.387726,352.644287 395.156128,344.313354 380.864746,336.088226   C379.730194,335.435242 378.548615,334.863983 376.290375,333.677643   C377.497772,338.393951 378.431610,342.165771 379.430145,345.920410   C383.281433,360.402100 387.221375,374.860626 390.989624,389.363831   C392.936829,396.858093 390.185608,402.473389 383.780731,404.774628   C376.328156,407.452301 369.902405,404.272186 367.623688,396.148376   C362.585083,378.185486 357.859772,360.134674 353.013916,342.117767   C350.980499,334.557587 349.074493,326.960266 346.860504,319.453613   C346.346008,317.709229 345.174500,315.642029 343.690948,314.776855   C317.648529,299.589417 291.511749,284.563782 265.385254,269.520782   C264.860138,269.218414 264.213043,269.127899 263.157440,268.789215   C263.053467,270.773254 262.898254,272.364319 262.897400,273.955444   C262.882568,302.288025 262.941101,330.620880 262.815796,358.952911   C262.800537,362.407776 263.846008,364.832855 266.286011,367.249207   C284.522583,385.308990 302.664948,403.464447 320.761322,421.664948   C327.759125,428.703003 327.363434,436.355072 319.966797,441.677155   C314.726379,445.447845 309.291931,444.740540 303.881134,439.364624   C291.703735,427.265564 279.594208,415.098267 267.450195,402.965576   C266.287018,401.803497 265.075470,400.689850 263.329071,399.021240   C263.136444,400.858551 262.903687,402.054016 262.901947,403.249817   C262.878143,419.582703 262.910736,435.915649 262.877808,452.248474   C262.856476,462.829773 258.401154,466.975983 248.151138,466.079010   C241.527893,465.499420 238.013031,461.740692 237.983673,454.917786   C237.924225,441.098328 237.965927,427.278442 237.965927,412.184967   C235.892242,413.901001 234.441620,415.014221 233.089874,416.236816   C229.385178,419.587433 225.821640,423.101196 222.018097,426.333740   C216.916031,430.669922 211.252853,430.516357 207.306580,426.187805   C203.677399,422.207062 203.790756,416.128143 208.239288,411.800842   C216.713928,403.557281 225.397232,395.519623 234.204544,387.631653   C237.053574,385.080017 238.343140,382.479462 238.226212,378.602814   C237.955505,369.626709 238.140137,360.636871 238.140137,350.679352   C236.611908,351.920135 235.507294,352.684357 234.558502,353.608521   C227.517899,360.466278 220.534836,367.383270 213.479706,374.225983   C208.540955,379.016052 202.566177,379.318970 198.457413,375.101746   C194.313797,370.848724 194.566620,364.679169 199.332321,359.954742   C210.928482,348.459045 222.552200,336.989227 234.316925,325.667023   C237.046417,323.040192 238.303589,320.360962 238.223022,316.504639   C237.986328,305.176544 238.139114,293.840332 238.139359,282.507294   C238.139420,279.744110 238.139389,276.980927 238.139389,273.524414   C236.166168,274.329163 235.091248,274.641144 234.140549,275.174530   C222.667999,281.611206 211.121536,287.926178 199.832535,294.671509   C197.571350,296.022644 195.437729,298.801605 194.728149,301.337158   C190.291016,317.192810 186.313873,333.176636 182.101364,349.096008   C180.185043,356.337891 175.438492,359.755951 169.681122,358.283722   C163.488708,356.700317 160.814743,351.334076 162.664459,344.055084   C165.353745,333.472168 168.089890,322.901123 171.045898,311.391083   C169.063354,312.296814 167.890976,312.721436 166.828995,313.336639   C162.073669,316.091400 157.609222,319.561493 152.557388,321.544220   C143.665726,325.033936 140.379547,331.675049 138.914902,340.473877   C137.415848,349.479401 134.965927,358.331268 132.816483,367.222412   C131.137039,374.169373 126.533661,377.433014 120.666496,376.056274   C114.939011,374.712280 111.900024,369.557129 113.221405,362.804749   C114.487045,356.337219 116.095421,349.936768 117.858322,342.160767   C115.148888,343.632660 113.610725,344.418732 112.119926,345.286163   C101.757675,351.315369 91.497322,357.527374 81.017471,363.344177   C73.965378,367.258423 68.640541,365.809143 65.347488,359.761841   C62.165813,353.919067 64.139648,348.463165 71.041862,344.471771   C82.683258,337.739807 94.370804,331.087646 107.266258,323.698669   C101.155708,321.820251 96.198326,320.319580 91.257446,318.766357   C89.197403,318.118774 87.099083,317.518860 85.145935,316.619720   C80.115433,314.303802 77.745712,309.099487 79.347359,304.247925   C81.033699,299.139832 86.179802,296.205017 91.730095,297.806244   C103.392487,301.170746 114.999710,304.741211 126.545166,308.487274   C129.980499,309.601868 132.752319,309.502441 135.906906,307.575470   C143.813965,302.745453 151.933228,298.262848 160.857132,293.129059   C150.305893,290.229614 140.732620,287.614655 131.170868,284.958191   C129.251877,284.425079 127.302559,283.898926 125.495132,283.085358   C119.967941,280.597443 117.632683,275.705414 119.336311,270.515747   C121.044533,265.312103 125.833755,262.524872 131.701752,264.039520   C142.972702,266.948700 154.146408,270.234497 165.361801,273.359222   C168.725830,274.296509 172.300522,274.777008 175.418854,276.235962   C182.390060,279.497528 188.223923,277.798309 194.403946,273.879608   C204.622604,267.400055 215.249298,261.563934 226.197601,255.168396   C224.915527,254.317398 223.659103,253.381805 222.311584,252.604095   C197.492828,238.279831 172.700470,223.908646 147.769638,209.781891   C145.627731,208.568222 142.339081,208.178207 139.943192,208.797806   C114.943481,215.263184 90.027664,222.051987 65.065392,228.663528   C56.589943,230.908356 51.062019,228.153122 48.777748,220.855270   C46.416553,213.311661 49.841480,207.408020 58.216084,205.120270   C74.443283,200.687363 90.714005,196.413925 106.962036,192.057022   C108.683182,191.595490 110.373222,191.018021 113.284492,190.123566   C110.421021,188.275589 108.491592,186.916977 106.458595,185.736755   C93.057060,177.956711 79.583214,170.299805 66.239647,162.421997   C60.347794,158.943573 58.289150,154.055099 59.853870,148.702042   C62.411449,139.952347 69.985924,136.701645 78.326744,141.302902   C90.578339,148.061569 102.603455,155.230621 114.730431,162.215515   C118.171371,164.197418 121.631020,166.146820 126.294899,168.801453   C125.102943,164.238068 124.231606,160.831146 123.322586,157.434311   C119.409042,142.810196 115.448845,128.198471 111.577324,113.563271   C109.273445,104.854134 112.422966,98.958214 120.328865,96.885826   C127.250061,95.071564 132.912079,98.920387 135.175079,107.258690   C141.796402,131.655746 148.405701,156.056778 154.815918,180.509659   C155.858078,184.485153 157.629288,187.081436 161.309128,189.171600   C185.791611,203.077621 210.123810,217.248154 234.517487,231.310791   C235.764282,232.029556 237.127335,232.546631 239.138214,233.485260   C239.253784,231.122452 239.411789,229.385986 239.412766,227.649445   C239.428421,199.483505 239.357895,171.317230 239.505081,143.152069   C239.524307,139.474930 238.326416,136.965469 235.773163,134.438339   C217.887115,116.735214 200.047607,98.982391 182.436981,81.006668   C179.923111,78.440697 178.724228,74.586456 176.915573,70.911476  z"
   id="path2" />&#10;</svg>
